HIERARCHY
ROOT joint_Root
{
	OFFSET 0.0 0.0 0.0
	CHANNELS 6 Xposition Yposition Zposition Zrotation Xrotation Yrotation 
	JOINT Hips
	{
		OFFSET 4.5925 91.4895 -427.239
		CHANNELS 6 Xposition Yposition Zposition Zrotation Xrotation Yrotation 
		JOINT Spine
		{
			OFFSET 15.7357 0.0 0.0
			CHANNELS 6 Xposition Yposition Zposition Zrotation Xrotation Yrotation 
			JOINT Chest
			{
				OFFSET 8.98455 -0.406207 0.0
				CHANNELS 6 Xposition Yposition Zposition Zrotation Xrotation Yrotation 
				JOINT Neck
				{
					OFFSET 16.3773 0.0 0.0
					CHANNELS 6 Xposition Yposition Zposition Zrotation Xrotation Yrotation 
					JOINT Head
					{
						OFFSET 6.45672 0.0 0.0
						CHANNELS 6 Xposition Yposition Zposition Zrotation Xrotation Yrotation 
						End Site
						{
							OFFSET 0.0 0.0 0.0
						}
					}
				}
				JOINT Shoulder_L
				{
					OFFSET 12.9942 -0.242716 4.98039
					CHANNELS 6 Xposition Yposition Zposition Zrotation Xrotation Yrotation 
					JOINT UpperArm_L
					{
						OFFSET 5.34809 0.0 0.0
						CHANNELS 6 Xposition Yposition Zposition Zrotation Xrotation Yrotation 
						JOINT LowerArm_L
						{
							OFFSET 24.3286 1.87007e-05 0.0
							CHANNELS 6 Xposition Yposition Zposition Zrotation Xrotation Yrotation 
							JOINT Hand_L
							{
								OFFSET 22.2916 0.0 0.0
								CHANNELS 6 Xposition Yposition Zposition Zrotation Xrotation Yrotation 
								End Site
								{
									OFFSET 0.0 0.0 0.0
								}
							}
						}
					}
				}
				JOINT Shoulder_R
				{
					OFFSET 12.9945 -0.242716 -4.98039
					CHANNELS 6 Xposition Yposition Zposition Zrotation Xrotation Yrotation 
					JOINT UpperArm_R
					{
						OFFSET -5.34813 0.0 0.0
						CHANNELS 6 Xposition Yposition Zposition Zrotation Xrotation Yrotation 
						JOINT LowerArm_R
						{
							OFFSET -24.3289 0.000322201 0.0
							CHANNELS 6 Xposition Yposition Zposition Zrotation Xrotation Yrotation 
							JOINT Hand_R
							{
								OFFSET -22.2915 -0.000108084 0.0
								CHANNELS 6 Xposition Yposition Zposition Zrotation Xrotation Yrotation 
								End Site
								{
									OFFSET 0.0 0.0 0.0
								}
							}
						}
					}
				}
			}
		}
		JOINT UpperLeg_L
		{
			OFFSET -2.19248 -6.46944 0.0
			CHANNELS 6 Xposition Yposition Zposition Zrotation Xrotation Yrotation 
			JOINT LowerLeg_L
			{
				OFFSET 39.0811 0.0 -1.23785e-05
				CHANNELS 6 Xposition Yposition Zposition Zrotation Xrotation Yrotation 
				JOINT Foot_L
				{
					OFFSET 40.9854 0.0 -1.26872e-05
					CHANNELS 6 Xposition Yposition Zposition Zrotation Xrotation Yrotation 
					JOINT Toes_L
					{
						OFFSET 11.7543 0.0 0.0
						CHANNELS 6 Xposition Yposition Zposition Zrotation Xrotation Yrotation 
						End Site
						{
							OFFSET 0.0 0.0 0.0
						}
					}
				}
			}
		}
		JOINT UpperLeg_R
		{
			OFFSET -2.19251 6.46944 0.0
			CHANNELS 6 Xposition Yposition Zposition Zrotation Xrotation Yrotation 
			JOINT LowerLeg_R
			{
				OFFSET -39.0811 -0.00228153 -0.0401928
				CHANNELS 6 Xposition Yposition Zposition Zrotation Xrotation Yrotation 
				JOINT Foot_R
				{
					OFFSET -40.9854 0.0 0.0
					CHANNELS 6 Xposition Yposition Zposition Zrotation Xrotation Yrotation 
					JOINT Toes_R
					{
						OFFSET -11.7543 0.0 0.0
						CHANNELS 6 Xposition Yposition Zposition Zrotation Xrotation Yrotation 
						End Site
						{
							OFFSET 0.0 0.0 0.0
						}
					}
				}
			}
		}
	}
}
MOTION
Frames:	4
Frame Time:	0.0333333
0.000000 0.000000 0.000000 0.000000 0.000000 -0.000000 -95.987600 89.099500 170.758000 76.358700 82.333500 16.262900 15.735700 0.000005 -0.000001 84.824600 81.200500 -85.317400 8.984550 -0.406207 -0.000000 9.757240 -1.586480 -0.849581 16.377300 -0.000001 -0.000001 4.508460 -2.081970 -0.341830 6.456720 -0.000001 -0.000000 1.672770 -0.815841 0.315055 12.994200 -0.242716 4.980390 -91.153200 3.533970 -71.914400 5.348090 -0.000007 -0.000001 -59.739000 33.260300 -25.857800 24.328600 0.000019 0.000005 8.044840 17.855800 -24.748200 22.291600 -0.000001 0.000005 11.973300 5.209090 2.490360 12.994500 -0.242716 -4.980390 88.013600 9.618240 -78.272900 -5.348130 -0.000001 -0.000004 -64.530600 30.365200 -7.593000 -24.328900 0.000322 -0.000009 -0.879736 -2.046960 -23.238600 -22.291500 -0.000108 -0.000004 15.920500 5.397700 -2.862640 -2.192480 -6.469440 -0.000000 179.451000 -10.398600 -15.331900 39.081100 -0.000007 -0.000012 -0.352100 0.414925 40.318200 40.985400 -0.000006 -0.000013 2.189250 -4.752250 -73.070600 11.754300 -0.000000 0.000003 -0.000375 -0.003136 -16.693500 -2.192510 6.469440 -0.000001 178.648000 14.091000 157.994000 -39.081100 -0.002282 -0.040193 0.107818 -0.054903 62.312700 -40.985400 0.000008 0.000006 3.011870 -1.342110 -62.573700 -11.754300 -0.000006 -0.000006 -0.011388 -0.113733 -21.208700
0.000000 0.000000 0.000000 0.000000 0.000000 -0.000000 -94.531100 89.464200 170.823000 74.054400 82.153200 18.415400 15.735700 0.000005 -0.000001 83.976000 81.195200 -84.263000 8.984550 -0.406207 -0.000000 9.745520 -1.841850 -0.416451 16.377300 -0.000001 -0.000001 4.254470 -2.170750 -0.281091 6.456720 -0.000001 -0.000000 1.423500 -0.793189 0.551160 12.994200 -0.242716 4.980390 -90.964200 2.990590 -72.122000 5.348090 -0.000007 -0.000001 -59.232200 33.812500 -27.376200 24.328600 0.000019 0.000005 8.389370 16.947900 -26.836600 22.291600 -0.000001 0.000005 12.222700 5.213270 2.384360 12.994500 -0.242716 -4.980390 88.014300 9.560060 -78.208400 -5.348130 -0.000001 -0.000004 -65.387400 30.278100 -6.756340 -24.328900 0.000322 -0.000009 -0.717406 -1.732600 -22.465800 -22.291500 -0.000108 -0.000004 15.392600 5.392310 -2.688290 -2.192480 -6.469440 -0.000000 179.922000 -10.374900 -13.452400 39.081100 -0.000007 -0.000012 -0.359290 0.450312 38.586100 40.985400 -0.000006 -0.000013 1.995100 -4.834120 -73.325400 11.754300 -0.000000 0.000003 -0.000329 -0.002807 -16.681800 -2.192510 6.469440 -0.000001 179.909000 13.754000 156.895000 -39.081100 -0.002282 -0.040193 0.072057 -0.045743 56.395500 -40.985400 0.000008 0.000006 2.926490 -0.967923 -63.840700 -11.754300 -0.000006 -0.000006 -0.011910 -0.117396 -21.358700
0.000000 0.000000 0.000000 0.000000 0.000000 -0.000000 -93.186000 89.748700 170.901000 72.569500 82.025200 19.495500 15.735700 0.000005 -0.000001 83.209200 81.239900 -83.312600 8.984550 -0.406207 -0.000000 9.633920 -2.061130 -0.033119 16.377300 -0.000001 -0.000001 3.917580 -2.240440 -0.201283 6.456720 -0.000001 -0.000000 1.297210 -0.762774 0.967594 12.994200 -0.242716 4.980390 -90.809500 2.542220 -72.332100 5.348090 -0.000007 -0.000001 -58.350100 34.387300 -28.807100 24.328600 0.000019 0.000005 8.879980 16.224200 -29.214300 22.291600 -0.000001 0.000005 11.870100 5.216540 2.301050 12.994500 -0.242716 -4.980390 88.000700 9.580180 -78.153600 -5.348130 -0.000001 -0.000004 -65.971000 30.131900 -6.240670 -24.328900 0.000322 -0.000009 -0.540009 -1.347590 -21.800200 -22.291500 -0.000108 -0.000004 14.808900 5.379790 -2.291280 -2.192480 -6.469440 -0.000000 -179.809000 -10.528800 -12.041400 39.081100 -0.000007 -0.000012 -0.320295 0.425025 37.002000 40.985400 -0.000006 -0.000013 1.933470 -4.646850 -73.537300 11.754300 -0.000000 0.000003 -0.000424 -0.003469 -16.705200 -2.192510 6.469440 -0.000001 -178.741000 13.831600 155.853000 -39.081100 -0.002282 -0.040193 0.045005 -0.036674 48.705000 -40.985400 0.000008 0.000006 2.143090 -0.184620 -63.513400 -11.754300 -0.000006 -0.000006 -0.011869 -0.117108 -21.346900
0.000000 0.000000 0.000000 0.000000 0.000000 -0.000000 -91.862600 89.912100 170.994000 72.260400 82.016500 19.256400 15.735700 0.000005 -0.000001 82.375000 81.311000 -82.342900 8.984550 -0.406207 -0.000000 9.464610 -2.292200 0.254104 16.377300 -0.000001 -0.000001 3.542490 -2.297940 -0.083039 6.456720 -0.000001 -0.000000 1.118290 -0.759183 1.338140 12.994200 -0.242716 4.980390 -90.738000 2.346950 -72.538000 5.348090 -0.000007 -0.000001 -57.045900 34.917000 -29.966100 24.328600 0.000019 0.000005 9.496260 15.632000 -31.830600 22.291600 -0.000001 0.000005 11.768100 5.228970 1.982210 12.994500 -0.242716 -4.980390 87.972100 9.674550 -78.101800 -5.348130 -0.000001 -0.000004 -66.332500 29.993200 -5.966460 -24.328900 0.000322 -0.000009 -0.455793 -1.162620 -21.362800 -22.291500 -0.000108 -0.000004 14.358500 5.370040 -1.987350 -2.192480 -6.469440 -0.000000 -179.709000 -10.701900 -10.955400 39.081100 -0.000007 -0.000012 -0.327316 0.454959 35.733500 40.985400 -0.000006 -0.000013 1.843980 -4.454550 -73.888100 11.754300 -0.000000 0.000003 -0.000392 -0.003249 -16.697500 -2.192510 6.469440 -0.000001 -177.324000 14.622800 154.737000 -39.081100 -0.002282 -0.040193 0.026212 -0.026644 40.722400 -40.985400 0.000008 0.000006 1.456090 1.358490 -62.499000 -11.754300 -0.000006 -0.000006 -0.012671 -0.122618 -21.572700
